<svg width="124" height="53" viewBox="0 0 124 53" version="1.1" xmlns="http://www.w3.org/2000/svg" xmlns:xlink="http://www.w3.org/1999/xlink">
<title>Union</title>
<desc>Created using Figma</desc>
<g id="Canvas" transform="translate(1018 -3449)">
<g id="Union">
<use xlink:href="#path0_fill" transform="translate(-1018 3449)" fill="#333333"/>
<use xlink:href="#path1_fill" transform="translate(-1018 3449)" fill="#333333"/>
</g>
</g>
<defs>
<path id="path0_fill" d="M 0 0.827018L 0 52.1729L 35.0565 52.1729L 35.0565 42.7326L 10.1937 42.7326L 10.1937 30.5999L 25.2078 30.5999L 25.2078 21.1594L 10.1937 21.1594L 10.1937 10.2675L 31.4983 10.2675L 34.882 0.827018L 0 0.827018Z"/>
<path id="path1_fill" fill-rule="evenodd" d="M 44.7759 45.4794L 44.7817 45.4856L 44.7875 45.4918C 47.0146 47.8057 49.7727 49.7056 52.8031 51.0135C 55.8466 52.3098 59.2531 52.9924 62.7118 53L 97.8976 53L 97.8976 33.4257L 105.025 33.4257C 110.798 33.4257 115.496 31.9291 118.897 28.7318L 118.898 28.7313C 122.274 25.5545 124 21.6587 124 17.1264C 124 12.5971 122.276 8.72268 118.898 5.59038C 115.498 2.34773 110.8 0.827018 105.025 0.827018L 87.7038 0.827018L 87.7038 43.4907L 62.6429 43.4907C 58.2644 43.4907 54.8047 41.8897 52.1259 38.6728C 49.3505 35.3237 48.0569 31.4385 48.077 26.4999C 48.0569 21.5614 49.3505 17.6762 52.1259 14.3271C 54.8047 11.1102 58.2644 9.50932 62.6429 9.50932C 64.7367 9.50145 66.5626 9.87433 68.4331 10.6916L 68.4468 10.6976L 68.4607 10.7032C 70.3594 11.4743 71.9203 12.4551 73.3752 13.791L 74.4695 14.7895L 81.1566 8.09738L 80.0621 7.00209C 77.8352 4.78509 75.1182 3.00497 72.1787 1.83658C 69.2789 0.638474 66.0228 0.007094 62.7118 0C 59.2531 0.00755747 55.8466 0.690204 52.8031 1.98647C 49.7728 3.2944 47.0146 5.19414 44.7875 7.50812L 44.7817 7.51426L 44.7759 7.52046C 42.6125 9.84038 40.8067 12.7246 39.5105 15.9274L 39.5083 15.933L 39.5061 15.9386C 38.2633 19.1163 37.6138 22.7328 37.6077 26.4999C 37.6137 30.2662 38.262 33.9019 39.5032 37.1229L 39.5083 37.136L 39.5136 37.149C 40.81 40.3047 42.6144 43.1619 44.7759 45.4794ZM 111.299 22.1114L 111.292 22.117L 111.285 22.1227C 109.637 23.4826 107.791 24.0733 105.232 24.0543L 97.8976 24.0543L 97.8976 10.1986L 105.232 10.1986C 107.791 10.1796 109.637 10.7702 111.285 12.1301L 111.292 12.1358L 111.299 12.1414C 112.825 13.3417 113.6 14.9454 113.6 17.1264C 113.6 19.3073 112.825 20.9111 111.299 22.1114Z"/>
</defs>
</svg>
