<svg width="278" height="119" viewBox="0 0 278 119" version="1.1" xmlns="http://www.w3.org/2000/svg" xmlns:xlink="http://www.w3.org/1999/xlink">
<title>Union</title>
<desc>Created using Figma</desc>
<g id="Canvas" transform="translate(1916 -2354)">
<g id="Union">
<use xlink:href="#path0_fill" transform="translate(-1916 2354)" fill="#FF5F4C"/>
<use xlink:href="#path1_fill" transform="translate(-1916 2354)" fill="#FF5F4C"/>
</g>
</g>
<defs>
<path id="path0_fill" d="M 0 1.85689L 0 117.143L 78.5943 117.143L 78.5943 95.9467L 22.8537 95.9467L 22.8537 68.7053L 56.5143 68.7053L 56.5143 47.5089L 22.8537 47.5089L 22.8537 23.0533L 70.6172 23.0533L 78.2031 1.85689L 0 1.85689Z"/>
<path id="path1_fill" fill-rule="evenodd" d="M 100.385 102.114L 100.398 102.128L 100.411 102.142C 105.404 107.337 111.587 111.603 118.381 114.54C 125.205 117.45 132.842 118.983 140.596 119L 219.48 119L 219.48 75.0502L 235.46 75.0502C 248.403 75.0502 258.935 71.6899 266.56 64.5109L 266.561 64.5098C 274.13 57.377 278 48.6299 278 38.4536C 278 28.2842 274.135 19.5849 266.561 12.552C 258.939 5.27131 248.406 1.85689 235.46 1.85689L 196.626 1.85689L 196.626 97.6489L 140.441 97.6489C 130.625 97.6489 122.869 94.0542 116.863 86.8313C 110.641 79.3117 107.74 70.5883 107.786 59.4999C 107.74 48.4114 110.641 39.688 116.863 32.1684C 122.869 24.9456 130.625 21.3511 140.441 21.3511C 145.136 21.3334 149.229 22.1707 153.423 24.0057L 153.453 24.019L 153.484 24.0318C 157.741 25.7631 161.241 27.9652 164.502 30.9647L 166.956 33.2066L 181.948 18.1809L 179.494 15.7217C 174.501 10.7439 168.41 6.747 161.82 4.12364C 155.319 1.43356 148.019 0.015928 140.596 0C 132.842 0.0169687 125.205 1.5497 118.381 4.46019C 111.587 7.39685 105.404 11.6623 100.411 16.8578L 100.398 16.8716L 100.385 16.8856C 95.5345 22.0944 91.4861 28.5703 88.5801 35.7615L 88.575 35.774L 88.5701 35.7867C 85.7839 42.9215 84.3277 51.0416 84.3141 59.4999C 84.3275 67.9561 85.7809 76.1195 88.5636 83.3515L 88.575 83.3809L 88.587 83.4101C 91.4934 90.4955 95.5387 96.9107 100.385 102.114ZM 249.525 49.6463L 249.509 49.6589L 249.493 49.6717C 245.8 52.7251 241.661 54.0513 235.923 54.0088L 219.48 54.0088L 219.48 22.8987L 235.923 22.8987C 241.661 22.8561 245.8 24.182 249.493 27.2354L 249.509 27.2482L 249.525 27.2609C 252.947 29.9558 254.683 33.5568 254.683 38.4536C 254.683 43.3504 252.947 46.9513 249.525 49.6463Z"/>
</defs>
</svg>
